<mxfile host="Electron" agent="Mozilla/5.0 (X11; Linux x86_64) AppleWebKit/537.36 (KHTML, like Gecko) draw.io/28.0.6 Chrome/138.0.7204.185 Electron/37.2.6 Safari/537.36" version="28.0.6" pages="2">
  <diagram id="4rh42vxHhXceGONblC5L" name="thread_smistamento_fisico">
    <mxGraphModel dx="1042" dy="692" grid="1" gridSize="10" guides="1" tooltips="1" connect="1" arrows="1" fold="1" page="1" pageScale="1" pageWidth="827" pageHeight="1169" math="0" shadow="0">
      <root>
        <mxCell id="0" />
        <mxCell id="1" parent="0" />
        <mxCell id="UT6nP9ZxfCxlTdFqshKj-22" style="edgeStyle=orthogonalEdgeStyle;rounded=0;orthogonalLoop=1;jettySize=auto;html=1;entryX=0.5;entryY=0;entryDx=0;entryDy=0;" parent="1" target="UT6nP9ZxfCxlTdFqshKj-2" edge="1">
          <mxGeometry relative="1" as="geometry">
            <mxPoint x="273.99999999999955" y="60" as="sourcePoint" />
          </mxGeometry>
        </mxCell>
        <mxCell id="UT6nP9ZxfCxlTdFqshKj-1" value="Start" style="strokeWidth=2;html=1;shape=mxgraph.flowchart.start_1;whiteSpace=wrap;" parent="1" vertex="1">
          <mxGeometry x="224" y="10" width="100" height="60" as="geometry" />
        </mxCell>
        <mxCell id="UT6nP9ZxfCxlTdFqshKj-23" style="edgeStyle=orthogonalEdgeStyle;rounded=0;orthogonalLoop=1;jettySize=auto;html=1;entryX=0.5;entryY=0;entryDx=0;entryDy=0;" parent="1" source="UT6nP9ZxfCxlTdFqshKj-2" target="UT6nP9ZxfCxlTdFqshKj-15" edge="1">
          <mxGeometry relative="1" as="geometry" />
        </mxCell>
        <mxCell id="UT6nP9ZxfCxlTdFqshKj-2" value="Crea lista istanze&lt;div&gt;SortingStation&lt;/div&gt;" style="rounded=1;whiteSpace=wrap;html=1;absoluteArcSize=1;arcSize=14;strokeWidth=2;" parent="1" vertex="1">
          <mxGeometry x="224" y="80" width="100" height="70" as="geometry" />
        </mxCell>
        <mxCell id="UT6nP9ZxfCxlTdFqshKj-25" style="edgeStyle=orthogonalEdgeStyle;rounded=0;orthogonalLoop=1;jettySize=auto;html=1;entryX=0;entryY=0.5;entryDx=0;entryDy=0;" parent="1" source="UT6nP9ZxfCxlTdFqshKj-3" target="UT6nP9ZxfCxlTdFqshKj-4" edge="1">
          <mxGeometry relative="1" as="geometry" />
        </mxCell>
        <mxCell id="sxwi9XY4MzIKeO4Q3-A9-1" value="Si" style="edgeLabel;html=1;align=center;verticalAlign=middle;resizable=0;points=[];" parent="UT6nP9ZxfCxlTdFqshKj-25" vertex="1" connectable="0">
          <mxGeometry x="-0.3692" y="-2" relative="1" as="geometry">
            <mxPoint as="offset" />
          </mxGeometry>
        </mxCell>
        <mxCell id="UT6nP9ZxfCxlTdFqshKj-3" value="Messaggio in coda?" style="strokeWidth=2;html=1;shape=mxgraph.flowchart.decision;whiteSpace=wrap;" parent="1" vertex="1">
          <mxGeometry x="215" y="260" width="118" height="110" as="geometry" />
        </mxCell>
        <mxCell id="UT6nP9ZxfCxlTdFqshKj-4" value="Estrazione messaggio" style="rounded=1;whiteSpace=wrap;html=1;absoluteArcSize=1;arcSize=14;strokeWidth=2;" parent="1" vertex="1">
          <mxGeometry x="387.5" y="295" width="135" height="40" as="geometry" />
        </mxCell>
        <mxCell id="UT6nP9ZxfCxlTdFqshKj-30" style="edgeStyle=orthogonalEdgeStyle;rounded=0;orthogonalLoop=1;jettySize=auto;html=1;entryX=0.459;entryY=-0.028;entryDx=0;entryDy=0;entryPerimeter=0;exitX=0;exitY=0.5;exitDx=0;exitDy=0;exitPerimeter=0;" parent="1" source="UT6nP9ZxfCxlTdFqshKj-6" target="UT6nP9ZxfCxlTdFqshKj-7" edge="1">
          <mxGeometry relative="1" as="geometry">
            <mxPoint x="330" y="570" as="targetPoint" />
          </mxGeometry>
        </mxCell>
        <mxCell id="sxwi9XY4MzIKeO4Q3-A9-4" value="No" style="edgeLabel;html=1;align=center;verticalAlign=middle;resizable=0;points=[];" parent="UT6nP9ZxfCxlTdFqshKj-30" vertex="1" connectable="0">
          <mxGeometry x="-0.5888" y="2" relative="1" as="geometry">
            <mxPoint as="offset" />
          </mxGeometry>
        </mxCell>
        <mxCell id="UT6nP9ZxfCxlTdFqshKj-6" value="Indice SortinGstation &amp;lt; loading_bay" style="strokeWidth=2;html=1;shape=mxgraph.flowchart.decision;whiteSpace=wrap;" parent="1" vertex="1">
          <mxGeometry x="400" y="465" width="110" height="110" as="geometry" />
        </mxCell>
        <mxCell id="UT6nP9ZxfCxlTdFqshKj-7" value="Iserisce True nella baia di carico fisica" style="rounded=1;whiteSpace=wrap;html=1;absoluteArcSize=1;arcSize=14;strokeWidth=2;" parent="1" vertex="1">
          <mxGeometry x="307.5" y="575" width="100" height="50" as="geometry" />
        </mxCell>
        <mxCell id="UT6nP9ZxfCxlTdFqshKj-9" value="Iserisce false nella baia di carico fisica" style="rounded=1;whiteSpace=wrap;html=1;absoluteArcSize=1;arcSize=14;strokeWidth=2;" parent="1" vertex="1">
          <mxGeometry x="502.5" y="575" width="100" height="50" as="geometry" />
        </mxCell>
        <mxCell id="UT6nP9ZxfCxlTdFqshKj-10" value="" style="strokeWidth=2;html=1;shape=mxgraph.flowchart.annotation_2;align=left;labelPosition=right;pointerEvents=1;rotation=-180;" parent="1" vertex="1">
          <mxGeometry x="630" y="410" width="40" height="260" as="geometry" />
        </mxCell>
        <mxCell id="UT6nP9ZxfCxlTdFqshKj-34" style="edgeStyle=orthogonalEdgeStyle;rounded=0;orthogonalLoop=1;jettySize=auto;html=1;entryX=0;entryY=0.5;entryDx=0;entryDy=0;" parent="1" source="UT6nP9ZxfCxlTdFqshKj-13" target="UT6nP9ZxfCxlTdFqshKj-19" edge="1">
          <mxGeometry relative="1" as="geometry" />
        </mxCell>
        <mxCell id="sxwi9XY4MzIKeO4Q3-A9-5" value="Si" style="edgeLabel;html=1;align=center;verticalAlign=middle;resizable=0;points=[];" parent="UT6nP9ZxfCxlTdFqshKj-34" vertex="1" connectable="0">
          <mxGeometry x="-0.3429" y="-4" relative="1" as="geometry">
            <mxPoint as="offset" />
          </mxGeometry>
        </mxCell>
        <mxCell id="sxwi9XY4MzIKeO4Q3-A9-40" style="edgeStyle=orthogonalEdgeStyle;rounded=0;orthogonalLoop=1;jettySize=auto;html=1;entryX=0;entryY=0.5;entryDx=0;entryDy=0;exitX=0;exitY=0.5;exitDx=0;exitDy=0;exitPerimeter=0;" parent="1" source="UT6nP9ZxfCxlTdFqshKj-13" target="sxwi9XY4MzIKeO4Q3-A9-33" edge="1">
          <mxGeometry relative="1" as="geometry">
            <mxPoint x="70" y="790" as="targetPoint" />
            <Array as="points">
              <mxPoint x="70" y="885" />
              <mxPoint x="70" y="790" />
            </Array>
          </mxGeometry>
        </mxCell>
        <mxCell id="sxwi9XY4MzIKeO4Q3-A9-41" value="No" style="edgeLabel;html=1;align=center;verticalAlign=middle;resizable=0;points=[];" parent="sxwi9XY4MzIKeO4Q3-A9-40" vertex="1" connectable="0">
          <mxGeometry x="-0.82" y="1" relative="1" as="geometry">
            <mxPoint as="offset" />
          </mxGeometry>
        </mxCell>
        <mxCell id="UT6nP9ZxfCxlTdFqshKj-13" value="Un pacco sta passando davanti a postazione?" style="strokeWidth=2;html=1;shape=mxgraph.flowchart.decision;whiteSpace=wrap;" parent="1" vertex="1">
          <mxGeometry x="104" y="830" width="126" height="110" as="geometry" />
        </mxCell>
        <mxCell id="UT6nP9ZxfCxlTdFqshKj-14" value="" style="strokeWidth=2;html=1;shape=mxgraph.flowchart.annotation_2;align=left;labelPosition=right;pointerEvents=1;rotation=-180;" parent="1" vertex="1">
          <mxGeometry x="562.5" y="770" width="40" height="365" as="geometry" />
        </mxCell>
        <mxCell id="UT6nP9ZxfCxlTdFqshKj-15" value="Entra ciclo di servizio" style="rounded=1;whiteSpace=wrap;html=1;absoluteArcSize=1;arcSize=14;strokeWidth=2;" parent="1" vertex="1">
          <mxGeometry x="224" y="170" width="100" height="70" as="geometry" />
        </mxCell>
        <mxCell id="UT6nP9ZxfCxlTdFqshKj-16" value="Entra nel ciclo di inserimento istruzioni&amp;nbsp;" style="rounded=1;whiteSpace=wrap;html=1;absoluteArcSize=1;arcSize=14;strokeWidth=2;" parent="1" vertex="1">
          <mxGeometry x="391.88" y="350" width="128.12" height="40" as="geometry" />
        </mxCell>
        <mxCell id="UT6nP9ZxfCxlTdFqshKj-17" value="Entra nel ciclo di smistamento fisico" style="rounded=1;whiteSpace=wrap;html=1;absoluteArcSize=1;arcSize=14;strokeWidth=2;" parent="1" vertex="1">
          <mxGeometry x="104" y="690" width="126" height="50" as="geometry" />
        </mxCell>
        <mxCell id="UT6nP9ZxfCxlTdFqshKj-38" style="edgeStyle=orthogonalEdgeStyle;rounded=0;orthogonalLoop=1;jettySize=auto;html=1;exitX=0;exitY=0.5;exitDx=0;exitDy=0;exitPerimeter=0;" parent="1" source="UT6nP9ZxfCxlTdFqshKj-18" target="UT6nP9ZxfCxlTdFqshKj-37" edge="1">
          <mxGeometry relative="1" as="geometry" />
        </mxCell>
        <mxCell id="sxwi9XY4MzIKeO4Q3-A9-31" value="No" style="edgeLabel;html=1;align=center;verticalAlign=middle;resizable=0;points=[];" parent="UT6nP9ZxfCxlTdFqshKj-38" vertex="1" connectable="0">
          <mxGeometry x="-0.6947" y="1" relative="1" as="geometry">
            <mxPoint as="offset" />
          </mxGeometry>
        </mxCell>
        <mxCell id="UT6nP9ZxfCxlTdFqshKj-57" style="edgeStyle=orthogonalEdgeStyle;rounded=0;orthogonalLoop=1;jettySize=auto;html=1;exitX=1;exitY=0.5;exitDx=0;exitDy=0;exitPerimeter=0;entryX=0.5;entryY=0;entryDx=0;entryDy=0;" parent="1" source="UT6nP9ZxfCxlTdFqshKj-18" target="UT6nP9ZxfCxlTdFqshKj-20" edge="1">
          <mxGeometry relative="1" as="geometry" />
        </mxCell>
        <mxCell id="sxwi9XY4MzIKeO4Q3-A9-30" value="Si" style="edgeLabel;html=1;align=center;verticalAlign=middle;resizable=0;points=[];" parent="UT6nP9ZxfCxlTdFqshKj-57" vertex="1" connectable="0">
          <mxGeometry x="-0.7092" y="-1" relative="1" as="geometry">
            <mxPoint as="offset" />
          </mxGeometry>
        </mxCell>
        <mxCell id="UT6nP9ZxfCxlTdFqshKj-18" value="Istruzione è positiva?" style="strokeWidth=2;html=1;shape=mxgraph.flowchart.decision;whiteSpace=wrap;" parent="1" vertex="1">
          <mxGeometry x="307.5" y="920" width="100" height="100" as="geometry" />
        </mxCell>
        <mxCell id="UT6nP9ZxfCxlTdFqshKj-19" value="Estrazione istruzione" style="rounded=1;whiteSpace=wrap;html=1;absoluteArcSize=1;arcSize=14;strokeWidth=2;" parent="1" vertex="1">
          <mxGeometry x="296.25" y="870" width="122.5" height="30" as="geometry" />
        </mxCell>
        <mxCell id="UT6nP9ZxfCxlTdFqshKj-20" value="Attiva attuatore meccanico" style="rounded=1;whiteSpace=wrap;html=1;absoluteArcSize=1;arcSize=14;strokeWidth=2;" parent="1" vertex="1">
          <mxGeometry x="410" y="1030" width="100" height="30" as="geometry" />
        </mxCell>
        <mxCell id="UT6nP9ZxfCxlTdFqshKj-24" style="edgeStyle=orthogonalEdgeStyle;rounded=0;orthogonalLoop=1;jettySize=auto;html=1;entryX=0.5;entryY=0;entryDx=0;entryDy=0;entryPerimeter=0;" parent="1" source="UT6nP9ZxfCxlTdFqshKj-15" target="UT6nP9ZxfCxlTdFqshKj-3" edge="1">
          <mxGeometry relative="1" as="geometry" />
        </mxCell>
        <mxCell id="UT6nP9ZxfCxlTdFqshKj-31" style="edgeStyle=orthogonalEdgeStyle;rounded=0;orthogonalLoop=1;jettySize=auto;html=1;entryX=0.562;entryY=0.059;entryDx=0;entryDy=0;entryPerimeter=0;exitX=1;exitY=0.5;exitDx=0;exitDy=0;exitPerimeter=0;" parent="1" source="UT6nP9ZxfCxlTdFqshKj-6" target="UT6nP9ZxfCxlTdFqshKj-9" edge="1">
          <mxGeometry relative="1" as="geometry" />
        </mxCell>
        <mxCell id="sxwi9XY4MzIKeO4Q3-A9-3" value="Si" style="edgeLabel;html=1;align=center;verticalAlign=middle;resizable=0;points=[];" parent="UT6nP9ZxfCxlTdFqshKj-31" vertex="1" connectable="0">
          <mxGeometry x="-0.6549" relative="1" as="geometry">
            <mxPoint as="offset" />
          </mxGeometry>
        </mxCell>
        <mxCell id="UT6nP9ZxfCxlTdFqshKj-37" value="Lascia passare" style="rounded=1;whiteSpace=wrap;html=1;absoluteArcSize=1;arcSize=14;strokeWidth=2;" parent="1" vertex="1">
          <mxGeometry x="207.5" y="1030" width="100" height="30" as="geometry" />
        </mxCell>
        <mxCell id="UT6nP9ZxfCxlTdFqshKj-42" style="edgeStyle=orthogonalEdgeStyle;rounded=0;orthogonalLoop=1;jettySize=auto;html=1;entryX=0.5;entryY=0;entryDx=0;entryDy=0;exitX=0;exitY=0.5;exitDx=0;exitDy=0;exitPerimeter=0;" parent="1" source="UT6nP9ZxfCxlTdFqshKj-3" target="UT6nP9ZxfCxlTdFqshKj-17" edge="1">
          <mxGeometry relative="1" as="geometry" />
        </mxCell>
        <mxCell id="sxwi9XY4MzIKeO4Q3-A9-2" value="No" style="edgeLabel;html=1;align=center;verticalAlign=middle;resizable=0;points=[];" parent="UT6nP9ZxfCxlTdFqshKj-42" vertex="1" connectable="0">
          <mxGeometry x="-0.8939" y="1" relative="1" as="geometry">
            <mxPoint as="offset" />
          </mxGeometry>
        </mxCell>
        <mxCell id="UT6nP9ZxfCxlTdFqshKj-44" value="ciclo terminato" style="strokeWidth=2;html=1;shape=mxgraph.flowchart.decision;whiteSpace=wrap;" parent="1" vertex="1">
          <mxGeometry x="412.5" y="635" width="95" height="70" as="geometry" />
        </mxCell>
        <mxCell id="UT6nP9ZxfCxlTdFqshKj-47" style="edgeStyle=orthogonalEdgeStyle;rounded=0;orthogonalLoop=1;jettySize=auto;html=1;entryX=0.5;entryY=0;entryDx=0;entryDy=0;entryPerimeter=0;exitX=0;exitY=0.5;exitDx=0;exitDy=0;" parent="1" source="UT6nP9ZxfCxlTdFqshKj-9" edge="1">
          <mxGeometry relative="1" as="geometry">
            <mxPoint x="460" y="635" as="targetPoint" />
          </mxGeometry>
        </mxCell>
        <mxCell id="UT6nP9ZxfCxlTdFqshKj-48" style="edgeStyle=orthogonalEdgeStyle;rounded=0;orthogonalLoop=1;jettySize=auto;html=1;exitX=1;exitY=0.5;exitDx=0;exitDy=0;entryX=0.5;entryY=0;entryDx=0;entryDy=0;entryPerimeter=0;" parent="1" source="UT6nP9ZxfCxlTdFqshKj-7" edge="1">
          <mxGeometry relative="1" as="geometry">
            <mxPoint x="460" y="635" as="targetPoint" />
          </mxGeometry>
        </mxCell>
        <mxCell id="UT6nP9ZxfCxlTdFqshKj-50" style="edgeStyle=orthogonalEdgeStyle;rounded=0;orthogonalLoop=1;jettySize=auto;html=1;entryX=0.5;entryY=0;entryDx=0;entryDy=0;" parent="1" source="UT6nP9ZxfCxlTdFqshKj-44" target="UT6nP9ZxfCxlTdFqshKj-17" edge="1">
          <mxGeometry relative="1" as="geometry">
            <mxPoint x="160" y="670" as="targetPoint" />
          </mxGeometry>
        </mxCell>
        <mxCell id="sxwi9XY4MzIKeO4Q3-A9-11" value="Si" style="edgeLabel;html=1;align=center;verticalAlign=middle;resizable=0;points=[];" parent="UT6nP9ZxfCxlTdFqshKj-50" vertex="1" connectable="0">
          <mxGeometry x="-0.8626" y="3" relative="1" as="geometry">
            <mxPoint as="offset" />
          </mxGeometry>
        </mxCell>
        <mxCell id="UT6nP9ZxfCxlTdFqshKj-51" style="edgeStyle=orthogonalEdgeStyle;rounded=0;orthogonalLoop=1;jettySize=auto;html=1;exitX=1;exitY=0.5;exitDx=0;exitDy=0;exitPerimeter=0;entryX=1;entryY=0.5;entryDx=0;entryDy=0;" parent="1" source="UT6nP9ZxfCxlTdFqshKj-44" target="sxwi9XY4MzIKeO4Q3-A9-12" edge="1">
          <mxGeometry relative="1" as="geometry">
            <Array as="points">
              <mxPoint x="610" y="670" />
              <mxPoint x="610" y="430" />
            </Array>
            <mxPoint x="580" y="420" as="targetPoint" />
          </mxGeometry>
        </mxCell>
        <mxCell id="sxwi9XY4MzIKeO4Q3-A9-10" value="No" style="edgeLabel;html=1;align=center;verticalAlign=middle;resizable=0;points=[];" parent="UT6nP9ZxfCxlTdFqshKj-51" vertex="1" connectable="0">
          <mxGeometry x="-0.9266" y="-3" relative="1" as="geometry">
            <mxPoint as="offset" />
          </mxGeometry>
        </mxCell>
        <mxCell id="sxwi9XY4MzIKeO4Q3-A9-36" style="edgeStyle=orthogonalEdgeStyle;rounded=0;orthogonalLoop=1;jettySize=auto;html=1;entryX=1;entryY=0.5;entryDx=0;entryDy=0;" parent="1" source="UT6nP9ZxfCxlTdFqshKj-52" target="sxwi9XY4MzIKeO4Q3-A9-33" edge="1">
          <mxGeometry relative="1" as="geometry">
            <Array as="points">
              <mxPoint x="530" y="1125" />
              <mxPoint x="530" y="790" />
            </Array>
          </mxGeometry>
        </mxCell>
        <mxCell id="sxwi9XY4MzIKeO4Q3-A9-38" value="No" style="edgeLabel;html=1;align=center;verticalAlign=middle;resizable=0;points=[];" parent="sxwi9XY4MzIKeO4Q3-A9-36" vertex="1" connectable="0">
          <mxGeometry x="-0.9655" relative="1" as="geometry">
            <mxPoint as="offset" />
          </mxGeometry>
        </mxCell>
        <mxCell id="UT6nP9ZxfCxlTdFqshKj-52" value="ciclo terminato" style="strokeWidth=2;html=1;shape=mxgraph.flowchart.decision;whiteSpace=wrap;" parent="1" vertex="1">
          <mxGeometry x="120" y="1090" width="95" height="70" as="geometry" />
        </mxCell>
        <mxCell id="UT6nP9ZxfCxlTdFqshKj-56" style="edgeStyle=orthogonalEdgeStyle;rounded=0;orthogonalLoop=1;jettySize=auto;html=1;exitX=0;exitY=0.5;exitDx=0;exitDy=0;exitPerimeter=0;entryX=0.5;entryY=0;entryDx=0;entryDy=0;entryPerimeter=0;" parent="1" source="UT6nP9ZxfCxlTdFqshKj-52" target="UT6nP9ZxfCxlTdFqshKj-3" edge="1">
          <mxGeometry relative="1" as="geometry">
            <Array as="points">
              <mxPoint x="50" y="1125" />
              <mxPoint x="50" y="250" />
              <mxPoint x="274" y="250" />
            </Array>
          </mxGeometry>
        </mxCell>
        <mxCell id="sxwi9XY4MzIKeO4Q3-A9-8" value="Si" style="edgeLabel;html=1;align=center;verticalAlign=middle;resizable=0;points=[];" parent="UT6nP9ZxfCxlTdFqshKj-56" vertex="1" connectable="0">
          <mxGeometry x="-0.957" y="1" relative="1" as="geometry">
            <mxPoint as="offset" />
          </mxGeometry>
        </mxCell>
        <mxCell id="UT6nP9ZxfCxlTdFqshKj-59" style="edgeStyle=orthogonalEdgeStyle;rounded=0;orthogonalLoop=1;jettySize=auto;html=1;exitX=0.5;exitY=1;exitDx=0;exitDy=0;entryX=0.5;entryY=0;entryDx=0;entryDy=0;entryPerimeter=0;" parent="1" source="UT6nP9ZxfCxlTdFqshKj-37" target="UT6nP9ZxfCxlTdFqshKj-52" edge="1">
          <mxGeometry relative="1" as="geometry">
            <Array as="points">
              <mxPoint x="260" y="1070" />
              <mxPoint x="168" y="1070" />
            </Array>
          </mxGeometry>
        </mxCell>
        <mxCell id="UT6nP9ZxfCxlTdFqshKj-60" style="edgeStyle=orthogonalEdgeStyle;rounded=0;orthogonalLoop=1;jettySize=auto;html=1;exitX=0.5;exitY=1;exitDx=0;exitDy=0;entryX=0.5;entryY=0;entryDx=0;entryDy=0;entryPerimeter=0;" parent="1" source="UT6nP9ZxfCxlTdFqshKj-20" target="UT6nP9ZxfCxlTdFqshKj-52" edge="1">
          <mxGeometry relative="1" as="geometry">
            <Array as="points">
              <mxPoint x="460" y="1070" />
              <mxPoint x="168" y="1070" />
            </Array>
          </mxGeometry>
        </mxCell>
        <mxCell id="sxwi9XY4MzIKeO4Q3-A9-12" value="Seleziona SortingStation" style="rounded=1;whiteSpace=wrap;html=1;strokeWidth=2;" parent="1" vertex="1">
          <mxGeometry x="391.88" y="410" width="128.12" height="40" as="geometry" />
        </mxCell>
        <mxCell id="sxwi9XY4MzIKeO4Q3-A9-24" value="" style="endArrow=classic;html=1;rounded=0;exitX=0.5;exitY=1;exitDx=0;exitDy=0;entryX=0.5;entryY=0;entryDx=0;entryDy=0;" parent="1" source="UT6nP9ZxfCxlTdFqshKj-16" target="sxwi9XY4MzIKeO4Q3-A9-12" edge="1">
          <mxGeometry width="50" height="50" relative="1" as="geometry">
            <mxPoint x="390" y="300" as="sourcePoint" />
            <mxPoint x="440" y="250" as="targetPoint" />
          </mxGeometry>
        </mxCell>
        <mxCell id="sxwi9XY4MzIKeO4Q3-A9-25" value="" style="endArrow=classic;html=1;rounded=0;exitX=0.5;exitY=1;exitDx=0;exitDy=0;" parent="1" source="UT6nP9ZxfCxlTdFqshKj-4" target="UT6nP9ZxfCxlTdFqshKj-16" edge="1">
          <mxGeometry width="50" height="50" relative="1" as="geometry">
            <mxPoint x="390" y="300" as="sourcePoint" />
            <mxPoint x="440" y="250" as="targetPoint" />
          </mxGeometry>
        </mxCell>
        <mxCell id="sxwi9XY4MzIKeO4Q3-A9-26" value="" style="endArrow=classic;html=1;rounded=0;exitX=0.5;exitY=1;exitDx=0;exitDy=0;" parent="1" source="sxwi9XY4MzIKeO4Q3-A9-12" target="UT6nP9ZxfCxlTdFqshKj-6" edge="1">
          <mxGeometry width="50" height="50" relative="1" as="geometry">
            <mxPoint x="390" y="470" as="sourcePoint" />
            <mxPoint x="440" y="420" as="targetPoint" />
          </mxGeometry>
        </mxCell>
        <mxCell id="sxwi9XY4MzIKeO4Q3-A9-27" value="Questo ciclo itera sulla lista delle istanze di SortingStation fino all&#39;indice indicato dal messaggio" style="text;html=1;align=center;verticalAlign=middle;whiteSpace=wrap;rounded=0;" parent="1" vertex="1">
          <mxGeometry x="670" y="502.5" width="150" height="75" as="geometry" />
        </mxCell>
        <mxCell id="sxwi9XY4MzIKeO4Q3-A9-32" value="" style="endArrow=classic;html=1;rounded=0;exitX=0.5;exitY=1;exitDx=0;exitDy=0;entryX=0.5;entryY=0;entryDx=0;entryDy=0;entryPerimeter=0;" parent="1" source="UT6nP9ZxfCxlTdFqshKj-19" target="UT6nP9ZxfCxlTdFqshKj-18" edge="1">
          <mxGeometry width="50" height="50" relative="1" as="geometry">
            <mxPoint x="280" y="970" as="sourcePoint" />
            <mxPoint x="350" y="920" as="targetPoint" />
          </mxGeometry>
        </mxCell>
        <mxCell id="sxwi9XY4MzIKeO4Q3-A9-33" value="Seleziona SortingStation" style="rounded=1;whiteSpace=wrap;html=1;strokeWidth=2;" parent="1" vertex="1">
          <mxGeometry x="104" y="770" width="126" height="40" as="geometry" />
        </mxCell>
        <mxCell id="sxwi9XY4MzIKeO4Q3-A9-34" value="" style="endArrow=classic;html=1;rounded=0;exitX=0.5;exitY=1;exitDx=0;exitDy=0;" parent="1" source="UT6nP9ZxfCxlTdFqshKj-17" target="sxwi9XY4MzIKeO4Q3-A9-33" edge="1">
          <mxGeometry width="50" height="50" relative="1" as="geometry">
            <mxPoint x="280" y="810" as="sourcePoint" />
            <mxPoint x="330" y="760" as="targetPoint" />
          </mxGeometry>
        </mxCell>
        <mxCell id="sxwi9XY4MzIKeO4Q3-A9-35" value="" style="endArrow=classic;html=1;rounded=0;exitX=0.5;exitY=1;exitDx=0;exitDy=0;" parent="1" source="sxwi9XY4MzIKeO4Q3-A9-33" target="UT6nP9ZxfCxlTdFqshKj-13" edge="1">
          <mxGeometry width="50" height="50" relative="1" as="geometry">
            <mxPoint x="280" y="810" as="sourcePoint" />
            <mxPoint x="330" y="760" as="targetPoint" />
          </mxGeometry>
        </mxCell>
        <mxCell id="sxwi9XY4MzIKeO4Q3-A9-39" value="Questo ciclo itera su tutta la lista delle istanze di SortingStation" style="text;html=1;align=center;verticalAlign=middle;whiteSpace=wrap;rounded=0;" parent="1" vertex="1">
          <mxGeometry x="610" y="926.25" width="190" height="52.5" as="geometry" />
        </mxCell>
      </root>
    </mxGraphModel>
  </diagram>
  <diagram id="IGzJUrfUCwaSPWTqpUI3" name="Processo_generale">
    <mxGraphModel dx="1042" dy="692" grid="1" gridSize="10" guides="1" tooltips="1" connect="1" arrows="1" fold="1" page="1" pageScale="1" pageWidth="827" pageHeight="1169" math="0" shadow="0">
      <root>
        <mxCell id="0" />
        <mxCell id="1" parent="0" />
        <mxCell id="0I3l0ZSecwMJ9lyKQS8v-1" value="start" style="strokeWidth=2;html=1;shape=mxgraph.flowchart.start_1;whiteSpace=wrap;" vertex="1" parent="1">
          <mxGeometry x="350" y="10" width="100" height="60" as="geometry" />
        </mxCell>
        <mxCell id="k2tilUVwqBNU4AAeaYtY-5" style="edgeStyle=orthogonalEdgeStyle;rounded=0;orthogonalLoop=1;jettySize=auto;html=1;entryX=0;entryY=0.5;entryDx=0;entryDy=0;" edge="1" parent="1" source="0I3l0ZSecwMJ9lyKQS8v-2" target="0I3l0ZSecwMJ9lyKQS8v-10">
          <mxGeometry relative="1" as="geometry" />
        </mxCell>
        <mxCell id="0I3l0ZSecwMJ9lyKQS8v-2" value="centro_smistamento" style="strokeWidth=2;html=1;shape=mxgraph.flowchart.database;whiteSpace=wrap;" vertex="1" parent="1">
          <mxGeometry x="40" y="70" width="120" height="60" as="geometry" />
        </mxCell>
        <mxCell id="0I3l0ZSecwMJ9lyKQS8v-21" style="edgeStyle=orthogonalEdgeStyle;rounded=0;orthogonalLoop=1;jettySize=auto;html=1;exitX=0.5;exitY=1;exitDx=0;exitDy=0;exitPerimeter=0;entryX=0.5;entryY=0;entryDx=0;entryDy=0;" edge="1" parent="1" source="0I3l0ZSecwMJ9lyKQS8v-3" target="0I3l0ZSecwMJ9lyKQS8v-4">
          <mxGeometry relative="1" as="geometry" />
        </mxCell>
        <mxCell id="0I3l0ZSecwMJ9lyKQS8v-22" style="edgeStyle=orthogonalEdgeStyle;rounded=0;orthogonalLoop=1;jettySize=auto;html=1;exitX=0.5;exitY=1;exitDx=0;exitDy=0;exitPerimeter=0;entryX=0.5;entryY=0;entryDx=0;entryDy=0;" edge="1" parent="1" source="0I3l0ZSecwMJ9lyKQS8v-3" target="0I3l0ZSecwMJ9lyKQS8v-6">
          <mxGeometry relative="1" as="geometry" />
        </mxCell>
        <mxCell id="0I3l0ZSecwMJ9lyKQS8v-23" style="edgeStyle=orthogonalEdgeStyle;rounded=0;orthogonalLoop=1;jettySize=auto;html=1;exitX=0.5;exitY=1;exitDx=0;exitDy=0;exitPerimeter=0;entryX=0.5;entryY=0;entryDx=0;entryDy=0;" edge="1" parent="1" source="0I3l0ZSecwMJ9lyKQS8v-3" target="0I3l0ZSecwMJ9lyKQS8v-5">
          <mxGeometry relative="1" as="geometry" />
        </mxCell>
        <mxCell id="0I3l0ZSecwMJ9lyKQS8v-3" value="" style="verticalLabelPosition=bottom;verticalAlign=top;html=1;shape=mxgraph.flowchart.parallel_mode;pointerEvents=1" vertex="1" parent="1">
          <mxGeometry x="352.5" y="400" width="95" height="40" as="geometry" />
        </mxCell>
        <mxCell id="0I3l0ZSecwMJ9lyKQS8v-4" value="Nastro trasportatore" style="rounded=1;whiteSpace=wrap;html=1;absoluteArcSize=1;arcSize=14;strokeWidth=2;" vertex="1" parent="1">
          <mxGeometry x="180" y="480" width="100" height="40" as="geometry" />
        </mxCell>
        <mxCell id="0I3l0ZSecwMJ9lyKQS8v-5" value="Telecamera&lt;span style=&quot;color: rgba(0, 0, 0, 0); font-family: monospace; font-size: 0px; text-align: start; text-wrap-mode: nowrap;&quot;&gt;%3CmxGraphModel%3E%3Croot%3E%3CmxCell%20id%3D%220%22%2F%3E%3CmxCell%20id%3D%221%22%20parent%3D%220%22%2F%3E%3CmxCell%20id%3D%222%22%20value%3D%22Nastro%20trasportatore%22%20style%3D%22rounded%3D1%3BwhiteSpace%3Dwrap%3Bhtml%3D1%3BabsoluteArcSize%3D1%3BarcSize%3D14%3BstrokeWidth%3D2%3B%22%20vertex%3D%221%22%20parent%3D%221%22%3E%3CmxGeometry%20x%3D%22160%22%20y%3D%22300%22%20width%3D%22100%22%20height%3D%2240%22%20as%3D%22geometry%22%2F%3E%3C%2FmxCell%3E%3C%2Froot%3E%3C%2FmxGraphModel%3E&lt;/span&gt;" style="rounded=1;whiteSpace=wrap;html=1;absoluteArcSize=1;arcSize=14;strokeWidth=2;" vertex="1" parent="1">
          <mxGeometry x="350" y="490" width="100" height="40" as="geometry" />
        </mxCell>
        <mxCell id="0I3l0ZSecwMJ9lyKQS8v-6" value="Push station" style="rounded=1;whiteSpace=wrap;html=1;absoluteArcSize=1;arcSize=14;strokeWidth=2;" vertex="1" parent="1">
          <mxGeometry x="520" y="480" width="100" height="40" as="geometry" />
        </mxCell>
        <mxCell id="0I3l0ZSecwMJ9lyKQS8v-7" value="Connessione DB" style="rounded=1;whiteSpace=wrap;html=1;absoluteArcSize=1;arcSize=14;strokeWidth=2;" vertex="1" parent="1">
          <mxGeometry x="350" y="100" width="100" height="40" as="geometry" />
        </mxCell>
        <mxCell id="0I3l0ZSecwMJ9lyKQS8v-8" value="Aggiornamento DB" style="rounded=1;whiteSpace=wrap;html=1;absoluteArcSize=1;arcSize=14;strokeWidth=2;" vertex="1" parent="1">
          <mxGeometry x="350" y="320" width="100" height="40" as="geometry" />
        </mxCell>
        <mxCell id="0I3l0ZSecwMJ9lyKQS8v-9" value="Fetch dati spedizione" style="rounded=1;whiteSpace=wrap;html=1;absoluteArcSize=1;arcSize=14;strokeWidth=2;" vertex="1" parent="1">
          <mxGeometry x="350" y="160" width="100" height="40" as="geometry" />
        </mxCell>
        <mxCell id="0I3l0ZSecwMJ9lyKQS8v-18" style="edgeStyle=orthogonalEdgeStyle;rounded=0;orthogonalLoop=1;jettySize=auto;html=1;entryX=0.5;entryY=0;entryDx=0;entryDy=0;" edge="1" parent="1" source="0I3l0ZSecwMJ9lyKQS8v-10" target="0I3l0ZSecwMJ9lyKQS8v-13">
          <mxGeometry relative="1" as="geometry" />
        </mxCell>
        <mxCell id="0I3l0ZSecwMJ9lyKQS8v-10" value="Creazione request" style="rounded=1;whiteSpace=wrap;html=1;absoluteArcSize=1;arcSize=14;strokeWidth=2;" vertex="1" parent="1">
          <mxGeometry x="350" y="220" width="100" height="40" as="geometry" />
        </mxCell>
        <mxCell id="0I3l0ZSecwMJ9lyKQS8v-19" style="edgeStyle=orthogonalEdgeStyle;rounded=0;orthogonalLoop=1;jettySize=auto;html=1;entryX=0.5;entryY=0;entryDx=0;entryDy=0;" edge="1" parent="1" source="0I3l0ZSecwMJ9lyKQS8v-13" target="0I3l0ZSecwMJ9lyKQS8v-8">
          <mxGeometry relative="1" as="geometry" />
        </mxCell>
        <mxCell id="0I3l0ZSecwMJ9lyKQS8v-13" value="VROOM" style="verticalLabelPosition=bottom;verticalAlign=top;html=1;shape=process;whiteSpace=wrap;rounded=1;size=0.14;arcSize=6;" vertex="1" parent="1">
          <mxGeometry x="520" y="260" width="100" height="60" as="geometry" />
        </mxCell>
        <mxCell id="0I3l0ZSecwMJ9lyKQS8v-14" value="" style="endArrow=classic;html=1;rounded=0;exitX=0.5;exitY=1;exitDx=0;exitDy=0;exitPerimeter=0;" edge="1" parent="1" source="0I3l0ZSecwMJ9lyKQS8v-1" target="0I3l0ZSecwMJ9lyKQS8v-7">
          <mxGeometry width="50" height="50" relative="1" as="geometry">
            <mxPoint x="390" y="350" as="sourcePoint" />
            <mxPoint x="440" y="300" as="targetPoint" />
          </mxGeometry>
        </mxCell>
        <mxCell id="0I3l0ZSecwMJ9lyKQS8v-15" value="" style="endArrow=classic;html=1;rounded=0;exitX=0.5;exitY=1;exitDx=0;exitDy=0;entryX=0.5;entryY=0;entryDx=0;entryDy=0;" edge="1" parent="1" source="0I3l0ZSecwMJ9lyKQS8v-7" target="0I3l0ZSecwMJ9lyKQS8v-9">
          <mxGeometry width="50" height="50" relative="1" as="geometry">
            <mxPoint x="390" y="350" as="sourcePoint" />
            <mxPoint x="440" y="300" as="targetPoint" />
          </mxGeometry>
        </mxCell>
        <mxCell id="0I3l0ZSecwMJ9lyKQS8v-16" value="" style="endArrow=classic;html=1;rounded=0;exitX=0.5;exitY=1;exitDx=0;exitDy=0;entryX=0.5;entryY=0;entryDx=0;entryDy=0;" edge="1" parent="1" source="0I3l0ZSecwMJ9lyKQS8v-9" target="0I3l0ZSecwMJ9lyKQS8v-10">
          <mxGeometry width="50" height="50" relative="1" as="geometry">
            <mxPoint x="390" y="350" as="sourcePoint" />
            <mxPoint x="440" y="300" as="targetPoint" />
          </mxGeometry>
        </mxCell>
        <mxCell id="0I3l0ZSecwMJ9lyKQS8v-20" style="edgeStyle=orthogonalEdgeStyle;rounded=0;orthogonalLoop=1;jettySize=auto;html=1;entryX=0.5;entryY=0;entryDx=0;entryDy=0;entryPerimeter=0;" edge="1" parent="1" source="0I3l0ZSecwMJ9lyKQS8v-8" target="0I3l0ZSecwMJ9lyKQS8v-3">
          <mxGeometry relative="1" as="geometry" />
        </mxCell>
        <mxCell id="0I3l0ZSecwMJ9lyKQS8v-28" style="edgeStyle=orthogonalEdgeStyle;rounded=0;orthogonalLoop=1;jettySize=auto;html=1;exitX=0;exitY=0.5;exitDx=0;exitDy=0;entryX=0.5;entryY=1;entryDx=0;entryDy=0;entryPerimeter=0;" edge="1" parent="1" source="0I3l0ZSecwMJ9lyKQS8v-8" target="0I3l0ZSecwMJ9lyKQS8v-2">
          <mxGeometry relative="1" as="geometry" />
        </mxCell>
        <mxCell id="0I3l0ZSecwMJ9lyKQS8v-29" style="edgeStyle=orthogonalEdgeStyle;rounded=0;orthogonalLoop=1;jettySize=auto;html=1;entryX=1;entryY=0.5;entryDx=0;entryDy=0;entryPerimeter=0;" edge="1" parent="1" source="0I3l0ZSecwMJ9lyKQS8v-7" target="0I3l0ZSecwMJ9lyKQS8v-2">
          <mxGeometry relative="1" as="geometry" />
        </mxCell>
        <mxCell id="0I3l0ZSecwMJ9lyKQS8v-31" value="" style="strokeWidth=2;html=1;shape=mxgraph.flowchart.annotation_2;align=left;labelPosition=right;pointerEvents=1;rotation=-181;" vertex="1" parent="1">
          <mxGeometry x="640" y="440.17" width="30" height="100" as="geometry" />
        </mxCell>
        <mxCell id="k2tilUVwqBNU4AAeaYtY-1" value="Thread in esecuzione parallela" style="text;html=1;align=center;verticalAlign=middle;whiteSpace=wrap;rounded=0;" vertex="1" parent="1">
          <mxGeometry x="680" y="452.67" width="90" height="75" as="geometry" />
        </mxCell>
        <mxCell id="k2tilUVwqBNU4AAeaYtY-2" value="" style="strokeWidth=2;html=1;shape=mxgraph.flowchart.annotation_2;align=left;labelPosition=right;pointerEvents=1;rotation=-181;" vertex="1" parent="1">
          <mxGeometry x="620.00033574921" y="250.00417085437874" width="30" height="100" as="geometry" />
        </mxCell>
        <mxCell id="k2tilUVwqBNU4AAeaYtY-3" value="Servizio per il routing" style="text;html=1;align=center;verticalAlign=middle;whiteSpace=wrap;rounded=0;" vertex="1" parent="1">
          <mxGeometry x="660.00033574921" y="262.50417085437874" width="90" height="75" as="geometry" />
        </mxCell>
      </root>
    </mxGraphModel>
  </diagram>
</mxfile>
